<?xml version="1.0" encoding="UTF-8"?>
<svg xmlns="http://www.w3.org/2000/svg" xmlns:xlink="http://www.w3.org/1999/xlink" width="35pt" height="35pt" viewBox="0 0 35 35" version="1.1">
<g id="surface1">
<path style=" stroke:none;fill-rule:nonzero;fill:rgb(29.803922%,68.627451%,31.372549%);fill-opacity:1;" d="M 28.257812 13.511719 L 23.125 17.335938 L 23.125 25.691406 L 26.714844 25.691406 C 27.558594 25.691406 28.257812 25.011719 28.257812 24.148438 Z M 28.257812 13.511719 "/>
<path style=" stroke:none;fill-rule:nonzero;fill:rgb(11.764706%,53.333333%,89.803922%);fill-opacity:1;" d="M 6.742188 13.511719 L 11.851562 17.359375 L 11.851562 25.714844 L 8.285156 25.714844 C 7.441406 25.714844 6.742188 25.035156 6.742188 24.171875 Z M 6.742188 13.511719 "/>
<path style=" stroke:none;fill-rule:nonzero;fill:rgb(89.803922%,22.352941%,20.784314%);fill-opacity:1;" d="M 23.125 10.941406 L 17.5 15.167969 L 11.875 10.941406 L 11.875 17.335938 L 17.5 21.558594 L 23.125 17.335938 Z M 23.125 10.941406 "/>
<path style=" stroke:none;fill-rule:nonzero;fill:rgb(77.647059%,15.686275%,15.686275%);fill-opacity:1;" d="M 6.742188 11.503906 L 6.742188 13.511719 L 11.851562 17.359375 L 11.851562 10.941406 L 10.265625 9.753906 C 9.894531 9.472656 9.425781 9.308594 8.9375 9.308594 C 7.722656 9.308594 6.742188 10.289062 6.742188 11.503906 Z M 6.742188 11.503906 "/>
<path style=" stroke:none;fill-rule:nonzero;fill:rgb(98.431373%,75.294118%,17.647059%);fill-opacity:1;" d="M 28.257812 11.503906 L 28.257812 13.511719 L 23.125 17.335938 L 23.125 10.941406 L 24.734375 9.753906 C 25.105469 9.472656 25.574219 9.308594 26.0625 9.308594 C 27.277344 9.308594 28.257812 10.289062 28.257812 11.503906 Z M 28.257812 11.503906 "/>
</g>
</svg>
