
<svg height="20" width="20" xmlns="http://www.w3.org/2000/svg"><g fill="#13110c" fill-rule="evenodd"><path d="M2.55 11.149c.92 1.012 3.826 3.878 7.176 3.878 3.358 0 6.258-2.864 7.178-3.878-.922-1.012-3.828-3.88-7.178-3.88-3.358 0-6.258 2.866-7.176 3.88m7.176 4.996c-4.588 0-8.202-4.458-8.354-4.648a.56.56 0 010-.696c.152-.192 3.766-4.648 8.354-4.648s8.2 4.456 8.354 4.648a.56.56 0 010 .696c-.154.19-3.766 4.648-8.354 4.648"/><path d="M9.726 9.82a1.33 1.33 0 00-1.328 1.329c0 .73.596 1.326 1.328 1.326s1.328-.596 1.328-1.326A1.33 1.33 0 009.726 9.82m0 3.772a2.448 2.448 0 01-2.446-2.444c0-1.35 1.098-2.446 2.446-2.446s2.446 1.096 2.446 2.446a2.448 2.448 0 01-2.446 2.444M9.708 5.577a.558.558 0 01-.558-.558v-2.46a.558.558 0 011.114 0v2.46c0 .308-.25.558-.556.558M13.683 6.448a.56.56 0 01-.478-.844l1.264-2.112a.56.56 0 01.958.576l-1.264 2.108a.555.555 0 01-.48.272M17.144 9.073a.548.548 0 01-.39-.162.555.555 0 01-.006-.79l1.726-1.75a.563.563 0 01.792-.006.56.56 0 01.004.79l-1.728 1.75a.553.553 0 01-.398.168M5.747 6.448a.553.553 0 01-.48-.272L4.003 4.068a.558.558 0 01.958-.576l1.262 2.112a.559.559 0 01-.19.766.576.576 0 01-.286.078M2.287 9.073a.553.553 0 01-.398-.168L.163 7.155a.557.557 0 11.794-.784l1.726 1.75a.557.557 0 01-.396.952"/></g></svg>